<svg width="66" height="69" viewBox="0 0 66 69" fill="none" xmlns="http://www.w3.org/2000/svg">
<path fill-rule="evenodd" clipRule="evenodd" d="M27.1904 18.9495C27.2471 18.8234 27.3105 18.7 27.3806 18.5793C29.2009 15.4261 34.8055 15.2494 39.8897 18.1844C44.4757 20.8319 47.0805 25.1137 46.21 28.2415C46.116 28.5804 45.9806 28.9066 45.8025 29.2147C45.7391 29.3241 45.6717 29.4302 45.599 29.5322C46.0166 30.1286 46.4121 30.749 46.7837 31.3927C53.7023 43.3762 49.5907 58.7224 37.6071 65.641C25.6235 72.559 10.278 68.4473 3.35937 56.4637C-3.55927 44.4808 0.552437 29.1347 12.536 22.2161C17.1473 19.5539 22.2562 18.5246 27.1904 18.9495Z" fill="#0F1923" fill-opacity="0.35"/>
<path fill-rule="evenodd" clipRule="evenodd" d="M51.4727 28.6297C58.3913 40.6133 54.279 55.9588 42.2961 62.8774C30.3125 69.7961 14.9663 65.6844 8.04768 53.7008C1.12904 41.7179 5.2414 26.3718 17.225 19.4531C29.2079 12.5345 44.554 16.6462 51.4727 28.6297Z" fill="url(#paint0_linear)"/>
<path fill-rule="evenodd" clipRule="evenodd" d="M51.3457 28.7031C53.2875 32.2592 54.2533 36.0814 54.3714 39.8742C54.4515 42.4644 54.1286 45.0379 53.4336 47.5086C53.0167 48.9888 52.467 50.4303 51.7913 51.8178C51.3444 52.737 50.8421 53.6315 50.2878 54.4986C49.2618 56.1042 48.0525 57.6091 46.6577 58.9719C45.3016 60.296 43.7807 61.494 42.0857 62.5146C40.4141 63.5305 38.6704 64.3223 36.8874 64.9046C35.0363 65.5096 33.1459 65.8899 31.2495 66.0479C31.1688 66.0526 31.1074 66.122 31.1121 66.2027C31.1167 66.2834 31.1861 66.3448 31.2668 66.3401C33.2019 66.2741 35.1437 65.9853 37.0541 65.4596C38.9145 64.9473 40.7409 64.2076 42.5053 63.241C44.303 62.2471 45.9352 61.0711 47.3841 59.7383C48.8856 58.3569 50.193 56.8126 51.2877 55.1457C51.8793 54.2438 52.4063 53.3046 52.8686 52.3367C53.5643 50.8792 54.114 49.3577 54.5109 47.7975C55.1699 45.2106 55.4187 42.5184 55.2266 39.8302C54.9498 35.9573 53.7571 32.0971 51.5992 28.5564C51.5585 28.487 51.4691 28.463 51.399 28.503C51.329 28.5437 51.3057 28.6331 51.3457 28.7031Z" fill="white"/>
<path fill-rule="evenodd" clipRule="evenodd" d="M34.737 16.5976C36.8035 16.8838 39.0922 17.6703 41.3142 18.953C46.9274 22.1942 50.0065 27.3845 48.1861 30.5377C46.3657 33.6902 40.3309 33.6188 34.7177 30.3782C29.2139 27.2004 26.1461 22.1475 27.7457 18.9797C25.9453 19.526 24.1797 20.2851 22.482 21.265C10.4985 28.1837 6.38674 43.5298 13.3054 55.5134C15.9469 60.0887 19.8165 63.516 24.259 65.6205C17.6672 64.1363 11.6898 60.0093 8.04768 53.701C1.12904 41.7181 5.2414 26.3719 17.225 19.4533C22.7335 16.2728 28.9524 15.4236 34.737 16.5976Z" fill="url(#paint1_linear)"/>
<path fill-rule="evenodd" clipRule="evenodd" d="M49.2756 28.8379C49.2009 29.0266 49.1129 29.2101 49.0101 29.3882C47.1897 32.5406 41.5845 32.7174 36.5009 29.7824C31.4173 26.8474 28.7678 21.9052 30.5882 18.7521C30.7056 18.5479 31.7315 16.5601 31.7315 16.5601L32.58 16.955C35.1615 15.7036 39.2765 16.1519 43.0967 18.3572C45.9864 20.0255 48.0889 22.3421 49.0322 24.6101L50.8985 25.4786L49.2756 28.8379Z" fill="url(#paint2_linear)"/>
<path fill-rule="evenodd" clipRule="evenodd" d="M49.2756 28.8379C49.2009 29.0266 49.1129 29.2101 49.0101 29.3882C47.1897 32.5406 41.5845 32.7174 36.5009 29.7824C31.4173 26.8474 28.7678 21.9052 30.5882 18.7521C30.7056 18.5479 31.7315 16.5601 31.7315 16.5601L32.58 16.955C35.1615 15.7036 39.2765 16.1519 43.0967 18.3572C45.9864 20.0255 48.0889 22.3421 49.0322 24.6101L50.8985 25.4786L49.2756 28.8379Z" fill="url(#paint3_linear)"/>
<path fill-rule="evenodd" clipRule="evenodd" d="M49.2756 28.8379C49.2009 29.0266 49.1129 29.2101 49.0101 29.3882C47.1897 32.5406 41.5845 32.7174 36.5009 29.7824C31.4173 26.8474 28.7678 21.9052 30.5882 18.7521C30.7056 18.5479 31.7315 16.5601 31.7315 16.5601L32.58 16.955C35.1615 15.7036 39.2765 16.1519 43.0967 18.3572C45.9864 20.0255 48.0889 22.3421 49.0322 24.6101L50.8985 25.4786L49.2756 28.8379Z" fill="url(#paint4_linear)"/>
<path fill-rule="evenodd" clipRule="evenodd" d="M50.4906 26.4518C48.6709 29.605 43.0657 29.7817 37.9821 26.8467C32.8978 23.9117 30.2483 18.9688 32.0687 15.8164C33.889 12.6632 39.4943 12.4864 44.5779 15.4215C49.6615 18.3565 52.311 23.2993 50.4906 26.4518Z" fill="url(#paint5_linear)"/>
<path fill-rule="evenodd" clipRule="evenodd" d="M44.4919 15.5715C45.9328 16.5167 47.1308 17.6327 48.09 18.7934C48.8057 19.6592 49.3721 20.5524 49.7756 21.4389C49.9584 21.8404 50.1058 22.24 50.2206 22.6329C50.342 23.0471 50.4233 23.4541 50.4613 23.8523C50.5421 24.6928 50.4373 25.4925 50.0578 26.2023C49.6422 27.0108 48.9599 27.6244 48.0887 28.0494C47.2809 28.4429 46.3283 28.687 45.2711 28.7638C45.1757 28.7644 45.0996 28.8432 45.101 28.9385C45.1016 29.0339 45.1803 29.1106 45.2757 29.1093C46.6672 29.1727 47.9279 28.9485 48.9565 28.4456C49.7816 28.0427 50.4434 27.4504 50.9243 26.7019C51.5587 25.674 51.7775 24.4533 51.572 23.1632C51.4546 22.4314 51.1951 21.6777 50.8109 20.9346C50.322 19.988 49.6322 19.0502 48.7644 18.1803C47.6571 17.071 46.2669 16.0785 44.6647 15.272C44.582 15.224 44.4759 15.252 44.4286 15.3347C44.3806 15.4174 44.4092 15.5235 44.4919 15.5715Z" fill="white"/>
<path fill-rule="evenodd" clipRule="evenodd" d="M47.2681 24.5695C46.0888 26.6126 42.456 26.7274 39.1614 24.8249C35.8676 22.9232 34.1499 19.72 35.3299 17.6769C36.5093 15.6337 40.142 15.5189 43.4366 17.4207C46.7312 19.3231 48.4481 22.5263 47.2681 24.5695Z" fill="#48172F"/>
<path fill-rule="evenodd" clipRule="evenodd" d="M34.9575 19.1404C36.5411 17.923 39.5642 18.0911 42.3465 19.6973C44.9286 21.1875 46.5415 23.4775 46.5509 25.382C44.9673 26.5993 41.9435 26.4312 39.1613 24.825C36.5798 23.3348 34.9669 21.0448 34.9575 19.1404Z" fill="#1E1016"/>
<path d="M18.5059 47.3667C19.2477 50.0922 20.0048 52.8145 20.7399 55.5427C20.962 56.3665 21.3849 57.0016 22.14 57.4425C22.7977 57.8701 23.5442 57.9041 24.2966 57.688C26.8914 56.9435 29.4903 56.2111 32.0711 55.4173C33.674 54.925 34.4144 53.4262 33.9562 51.7045C33.2284 48.9743 32.482 46.2487 31.7209 43.5285C31.2039 41.6807 29.7958 40.8569 28.0654 41.3552C25.5393 42.0836 23.0132 42.8134 20.4897 43.5511C18.7467 44.0601 17.9983 45.5023 18.5059 47.3667ZM17.7455 41.6407C19.5032 40.0305 21.2822 38.4456 23.0532 36.8513C23.791 36.1876 24.5321 35.5285 25.3766 34.7721C25.5246 36.1256 25.6547 37.3202 25.7981 38.6303C26.107 38.4382 26.3124 38.3208 26.5079 38.1867C29.1901 36.3497 31.8696 34.5086 34.5518 32.6716C35.1935 32.232 35.1962 32.2373 35.2696 33.0851C35.3563 34.0897 35.4457 35.0943 35.5304 36.0995C35.9833 41.4499 36.4803 46.7977 36.8685 52.1528C37.086 55.1518 35.2716 57.6873 32.554 58.4757C30.1887 59.1621 27.824 59.8499 25.4573 60.5309C22.0246 61.5182 18.8635 59.6044 17.8456 55.9209C17.1745 53.4902 16.5174 51.0548 15.8457 48.6241C15.0753 45.8345 15.713 43.5025 17.7455 41.6407Z" fill="white"/>
<path d="M25.0784 51.4531C25.9169 51.9848 26.2044 53.1361 25.7168 54.0113C25.2252 54.8925 24.1419 55.1626 23.3187 54.6103C22.5056 54.064 22.2241 52.956 22.681 52.1035C23.1466 51.2357 24.2579 50.9342 25.0784 51.4531Z" fill="white"/>
<path d="M28.9317 44.2895C29.7929 44.8158 30.0904 45.9445 29.6054 46.8416C29.1398 47.7028 28.0932 47.9916 27.2588 47.4887C26.4256 46.9871 26.1107 45.7951 26.579 44.9165C27.0333 44.0667 28.1012 43.7819 28.9317 44.2895Z" fill="white"/>
<path d="M23.5816 45.7432C24.4528 46.2768 24.7416 47.3814 24.246 48.284C23.7677 49.1565 22.7504 49.4313 21.91 48.9163C21.0621 48.396 20.7633 47.3294 21.2169 46.4362C21.6858 45.5104 22.7111 45.2102 23.5816 45.7432Z" fill="white"/>
<path d="M30.4128 50.025C31.2813 50.5646 31.5495 51.6506 31.0399 52.5624C30.5489 53.4403 29.5477 53.7057 28.7099 53.1808C27.8827 52.6631 27.5846 51.5592 28.0362 50.69C28.5111 49.7768 29.547 49.4867 30.4128 50.025Z" fill="white"/>
<path fill-rule="evenodd" clipRule="evenodd" d="M58.215 11.2251L58.2017 0L59.4184 4.53927L62.2553 1.15932L58.215 11.2251Z" fill="white"/>
<path fill-rule="evenodd" clipRule="evenodd" d="M59.0923 12.2077L64.1212 7.16675L62.6303 9.7489L65.4192 9.50476L59.0923 12.2077Z" fill="white"/>
<path fill-rule="evenodd" clipRule="evenodd" d="M57.912 14.0134L57.9206 21.1342L57.1488 18.2545L55.3491 20.3984L57.912 14.0134Z" fill="white"/>
<path fill-rule="evenodd" clipRule="evenodd" d="M58.8726 13.5051L63.221 16.0093L61.1919 15.4656L61.8663 17.3193L58.8726 13.5051Z" fill="white"/>
<path fill-rule="evenodd" clipRule="evenodd" d="M43.7692 20.6466L43.4077 21.9373C43.0041 23.0139 42.4058 23.8838 41.5713 24.4795C41.1004 24.8163 40.5507 25.0711 39.9017 25.2019L39.1612 24.825C38.4642 24.4227 37.8378 23.9618 37.2988 23.4609C37.513 23.1193 37.9045 22.9132 38.3354 22.9386C39.1166 22.9833 39.7196 22.8492 40.1752 22.5243C40.9216 21.9907 41.2578 21.0341 41.4826 19.9222L41.5666 19.3005L41.5753 19.2471C41.9362 16.9938 41.8234 14.2703 42.0222 11.9663C42.2377 9.46949 42.9014 7.43698 44.3235 6.4851C45.2541 5.86274 46.5361 5.60525 48.3332 6.05551C50.4711 6.59182 53.5322 8.21076 57.8767 11.442C58.4083 11.8382 58.519 12.5913 58.1235 13.1229C57.7272 13.6552 56.9741 13.766 56.4418 13.3704C53.1012 10.885 50.6012 9.40078 48.7161 8.69371C47.2726 8.1514 46.312 8.04599 45.6603 8.48224C45.014 8.91449 44.7705 9.78099 44.589 10.8029C44.3502 12.147 44.3169 13.7546 44.2675 15.3742C44.2115 17.2199 44.1261 19.079 43.7692 20.6466Z" fill="white"/>
<path fill-rule="evenodd" clipRule="evenodd" d="M37.7111 23.0752C37.9346 23.2273 38.1667 23.3741 38.4081 23.5128C38.4081 23.5128 38.4081 23.5128 38.4081 23.5135C39.0138 23.8217 39.7322 23.8123 40.3293 23.4888C40.4967 23.3821 40.6614 23.2793 40.8182 23.1673C41.652 22.5716 42.251 21.7018 42.6546 20.6251L43.0161 19.3344C43.373 17.7668 43.4577 15.9084 43.5144 14.062C43.5638 12.4424 43.5965 10.8349 43.8353 9.49074C44.2108 7.3782 46.5188 6.83921 47.963 7.38152C49.8474 8.08859 52.3475 9.57279 55.6888 12.0582C56.2211 12.4538 56.9741 12.3431 57.3697 11.8114C57.4998 11.6366 57.5752 11.4385 57.5992 11.2364C57.6913 11.3045 57.7833 11.3732 57.8767 11.4419C58.4083 11.8381 58.519 12.5912 58.1235 13.1228C57.7272 13.6551 56.9741 13.7659 56.4418 13.3703C53.1012 10.8849 50.6012 9.40069 48.7161 8.69361C47.2726 8.1513 46.312 8.0459 45.6603 8.48215C45.014 8.9144 44.7705 9.7809 44.589 10.8028C44.3502 12.1469 44.3169 13.7545 44.2675 15.3741C44.2115 17.2198 44.1261 19.0789 43.7692 20.6465L43.4077 21.9372C43.0041 23.0139 42.4058 23.8837 41.5713 24.4794C41.1004 24.8162 40.5507 25.071 39.9017 25.2018L39.1612 24.8249C38.4642 24.4227 37.8378 23.9617 37.2988 23.4608C37.4009 23.298 37.543 23.1659 37.7111 23.0752Z" fill="#1E1016" fill-opacity="0.5"/>
<defs>
<linearGradient id="paint0_linear" x1="52.6947" y1="31.6021" x2="10.3315" y2="57.0162" gradientUnits="userSpaceOnUse">
<stop stop-color="#3F485A"/>
<stop offset="1" stop-color="#1D2730"/>
</linearGradient>
<linearGradient id="paint1_linear" x1="18.3123" y1="63.4693" x2="29.76" y2="5.16334" gradientUnits="userSpaceOnUse">
<stop stop-color="#0F1923" stop-opacity="0.5"/>
<stop offset="1" stop-color="#0F1923" stop-opacity="0"/>
</linearGradient>
<linearGradient id="paint2_linear" x1="47.9809" y1="20.4243" x2="33.5589" y2="27.359" gradientUnits="userSpaceOnUse">
<stop stop-color="#F50045"/>
<stop offset="1" stop-color="#781739"/>
</linearGradient>
<linearGradient id="paint3_linear" x1="42.2923" y1="10.6387" x2="29.184" y2="32.0639" gradientUnits="userSpaceOnUse">
<stop stop-color="#343B4A"/>
<stop offset="1" stop-color="#1D2730"/>
</linearGradient>
<linearGradient id="paint4_linear" x1="30.0926" y1="20.1035" x2="48.0255" y2="30.7909" gradientUnits="userSpaceOnUse">
<stop stop-color="#0F1923"/>
<stop offset="1" stop-color="#0F1923" stop-opacity="0"/>
</linearGradient>
<linearGradient id="paint5_linear" x1="49.2585" y1="20.4497" x2="32.7094" y2="22.8096" gradientUnits="userSpaceOnUse">
<stop stop-color="#3F485A"/>
<stop offset="1" stop-color="#1D2730"/>
</linearGradient>
</defs>
</svg>