<svg width="63" height="64" viewBox="0 0 63 64" fill="none" xmlns="http://www.w3.org/2000/svg">
<g clipPath="url(#clip0)">
<path fill-rule="evenodd" clipRule="evenodd" d="M31.4209 0.0593262L57.9697 2.88895L47.829 7.46747H15.0129L4.87207 2.88895L31.4209 0.0593262Z" fill="url(#paint0_linear)"/>
<path fill-rule="evenodd" clipRule="evenodd" d="M4.87193 2.88892L0.210205 15.9875L10.3509 20.566L15.0127 7.46743L4.87193 2.88892Z" fill="url(#paint1_linear)"/>
<path fill-rule="evenodd" clipRule="evenodd" d="M57.9449 2.88892L62.6068 15.9875L52.4659 20.566L47.8042 7.46743L57.9449 2.88892Z" fill="url(#paint2_linear)"/>
<path fill-rule="evenodd" clipRule="evenodd" d="M52.5204 20.5661H10.321L14.9353 7.46753H47.9061L52.5204 20.5661Z" fill="url(#paint3_linear)"/>
<path fill-rule="evenodd" clipRule="evenodd" d="M52.4658 20.5659H10.321L31.4207 63.9415L52.4658 20.5659Z" fill="url(#paint4_linear)"/>
<path fill-rule="evenodd" clipRule="evenodd" d="M10.3509 20.5661L0.210205 15.9875L31.3935 63.9416L10.3509 20.5661Z" fill="url(#paint5_linear)"/>
<path fill-rule="evenodd" clipRule="evenodd" d="M52.4658 20.5661L62.6067 15.9875L31.4233 63.9416L52.4658 20.5661Z" fill="url(#paint6_linear)"/>
<path fill-rule="evenodd" clipRule="evenodd" d="M29.284 7.46737H21.5459L11.1013 2.22484L17.4841 1.54463L29.284 7.46737ZM40.5133 7.46737H35.4433L22.5645 1.00314L26.7465 0.557373L40.5133 7.46737Z" fill="url(#paint7_linear)"/>
<path fill-rule="evenodd" clipRule="evenodd" d="M11.576 17.124L10.6203 19.8092L2.98156 8.2007L3.9372 5.51538L11.576 17.124ZM8.19638 19.5933L4.32288 17.8444L1.22485 13.1364L2.18061 10.4512L8.19638 19.5933Z" fill="white" fill-opacity="0.15"/>
<path fill-rule="evenodd" clipRule="evenodd" d="M14.9316 7.46627C14.9316 7.46627 14.4279 8.74962 13.7476 10.5138C13.2208 11.8795 12.5863 13.5296 11.9945 15.0932C11.6523 15.9975 11.3253 16.872 11.04 17.6443C10.6024 18.8291 10.2641 19.7721 10.107 20.2028C10.0635 20.3254 10.0457 20.454 10.0528 20.5814C10.0597 20.7088 10.0921 20.8347 10.1488 20.9518C10.3332 21.3255 10.711 22.1064 11.2121 23.1057C11.6778 24.0343 12.2492 25.1512 12.8475 26.3169C13.3937 27.3813 13.9644 28.4839 14.5029 29.5184C15.8641 32.1332 17.0129 34.3074 17.0129 34.3074C17.0138 34.3091 17.0159 34.3099 17.0176 34.309C17.0194 34.3082 17.0202 34.3061 17.0193 34.3043C17.0193 34.3043 16.0148 32.0598 14.7942 29.3764C14.3114 28.3147 13.7947 27.1859 13.293 26.0999C12.7436 24.9102 12.2161 23.7721 11.7717 22.8331C11.2934 21.8226 10.9112 21.0439 10.7306 20.6684C10.7114 20.6292 10.7001 20.5871 10.6976 20.5444C10.695 20.5015 10.7005 20.4582 10.7149 20.4169C10.8624 19.9829 11.1899 19.0361 11.5914 17.8385C11.8533 17.058 12.1466 16.1716 12.4467 15.2525C12.9656 13.6632 13.5054 11.9797 13.951 10.5854C14.5265 8.78435 14.9383 7.46861 14.9383 7.46861C14.939 7.46671 14.938 7.4647 14.9362 7.46403C14.9343 7.46347 14.9323 7.46437 14.9316 7.46627Z" fill="white"/>
<path fill-rule="evenodd" clipRule="evenodd" d="M4.86849 2.88794C4.86849 2.88794 3.96858 5.25315 2.94536 7.97019C1.78755 11.0445 0.47315 14.567 0.0851295 15.6023C0.036208 15.7335 0.0209061 15.8726 0.0350911 16.0083C0.0492761 16.1445 0.0962988 16.277 0.17158 16.3957C0.446679 16.8298 1.03463 17.7642 1.84284 19.0325C2.54282 20.1307 3.40453 21.4813 4.36911 22.9751C4.82091 23.6746 5.29627 24.405 5.78794 25.1555C6.25247 25.8645 6.73208 26.5912 7.2204 27.327C8.65007 29.481 10.1445 31.7186 11.5543 33.8176C15.1071 39.1072 18.1088 43.5189 18.1088 43.5189C18.1098 43.5206 18.112 43.521 18.1136 43.5199C18.1153 43.5189 18.1157 43.5166 18.1147 43.5151C18.1147 43.5151 15.2997 38.982 11.9059 33.5889C10.5592 31.449 9.12019 29.1753 7.73118 26.9948C7.2567 26.2501 6.78704 25.5169 6.32742 24.8047C5.84077 24.0508 5.36608 23.3201 4.90993 22.6235C3.93585 21.1359 3.05091 19.8005 2.33094 18.7151C1.4995 17.4618 0.883845 16.5454 0.598805 16.118C0.564515 16.0666 0.542065 16.0091 0.534247 15.9494C0.526316 15.8892 0.530337 15.827 0.550442 15.7679C0.903726 14.7203 2.11023 11.1594 3.15512 8.0448C4.07848 5.29235 4.87519 2.89029 4.87519 2.89029C4.87586 2.88839 4.87485 2.88638 4.87307 2.88571C4.87117 2.88504 4.86916 2.88604 4.86849 2.88794Z" fill="white"/>
<path fill-rule="evenodd" clipRule="evenodd" d="M47.7593 7.46861C47.7593 7.46861 48.1808 8.81462 48.7668 10.6475C49.2232 12.0752 49.775 13.7967 50.3017 15.4074C50.6107 16.3527 50.9116 17.2584 51.1759 18.0443C51.5904 19.2772 51.9135 20.2143 52.0277 20.5444C51.8889 20.827 51.5157 21.5908 51.024 22.6271C50.5787 23.5657 50.0391 24.7282 49.4731 25.9519C48.9639 27.0527 48.4372 28.2033 47.9439 29.2874C46.705 32.01 45.6784 34.3043 45.6784 34.3043C45.6775 34.3061 45.6782 34.3082 45.68 34.309C45.6817 34.3099 45.6838 34.3091 45.6847 34.3074C45.6847 34.3074 46.8591 32.0849 48.2399 29.4316C48.7897 28.3751 49.3711 27.2512 49.9245 26.1719C50.5396 24.972 51.1225 23.8306 51.5874 22.9016C52.2427 21.5917 52.6672 20.7075 52.6672 20.7075C52.7051 20.6297 52.7102 20.5401 52.6815 20.4587C52.6815 20.4587 52.2967 19.3802 51.7323 17.8482C51.4456 17.0703 51.1123 16.176 50.7607 15.2457C50.1616 13.6605 49.5126 11.9732 48.9734 10.5747C48.2812 8.77933 47.766 7.46627 47.766 7.46627C47.7653 7.46437 47.7633 7.46347 47.7614 7.46403C47.7596 7.4647 47.7586 7.46671 47.7593 7.46861Z" fill="white"/>
</g>
<defs>
<linearGradient id="paint0_linear" x1="31.4209" y1="7.85154" x2="31.4209" y2="0.232763" gradientUnits="userSpaceOnUse">
<stop stop-color="#0275D4"/>
<stop offset="1" stop-color="#40ACFF"/>
</linearGradient>
<linearGradient id="paint1_linear" x1="7.61144" y1="21.4824" x2="7.61144" y2="3.30285" gradientUnits="userSpaceOnUse">
<stop stop-color="#01335C"/>
<stop offset="1" stop-color="#0076D5"/>
</linearGradient>
<linearGradient id="paint2_linear" x1="55.2054" y1="21.4824" x2="55.2054" y2="3.30285" gradientUnits="userSpaceOnUse">
<stop stop-color="#01335C"/>
<stop offset="1" stop-color="#0076D5"/>
</linearGradient>
<linearGradient id="paint3_linear" x1="31.4207" y1="21.2452" x2="31.4207" y2="7.77435" gradientUnits="userSpaceOnUse">
<stop stop-color="#0275D4"/>
<stop offset="1" stop-color="#40ACFF"/>
</linearGradient>
<linearGradient id="paint4_linear" x1="31.3935" y1="60.815" x2="31.3935" y2="21.5818" gradientUnits="userSpaceOnUse">
<stop stop-color="#0275D4"/>
<stop offset="1" stop-color="#40ACFF"/>
</linearGradient>
<linearGradient id="paint5_linear" x1="15.8019" y1="66.4277" x2="15.8019" y2="17.1105" gradientUnits="userSpaceOnUse">
<stop stop-color="#01335C"/>
<stop offset="1" stop-color="#0076D5"/>
</linearGradient>
<linearGradient id="paint6_linear" x1="47.015" y1="66.4277" x2="47.015" y2="17.1105" gradientUnits="userSpaceOnUse">
<stop stop-color="#01335C"/>
<stop offset="1" stop-color="#0076D5"/>
</linearGradient>
<linearGradient id="paint7_linear" x1="13.541" y1="2.40825" x2="35.3373" y2="8.13439" gradientUnits="userSpaceOnUse">
<stop stop-color="white" stop-opacity="0.5"/>
<stop offset="1" stop-color="white" stop-opacity="0"/>
</linearGradient>
<clipPath id="clip0">
<rect width="62.6597" height="64" fill="white"/>
</clipPath>
</defs>
</svg>